<?xml version="1.0" encoding="utf-8" ?><svg xmlns="http://www.w3.org/2000/svg" xmlns:xlink="http://www.w3.org/1999/xlink" width="1024" height="1024" viewBox="0 0 1024 1024"><defs><linearGradient id="gradient_0" gradientUnits="userSpaceOnUse" x1="254.23317" y1="464.12277" x2="256.65421" y2="119.17289"><stop offset="0" stop-color="#0683FD"/><stop offset="1" stop-color="#8FF5F5"/></linearGradient></defs><path fill="url(#gradient_0)" transform="scale(2 2)" d="M191.737 89.0861L191.715 77.5884C191.696 56.4943 200.882 48.1642 221.798 48.1175L290.629 48.1204C311.207 48.1713 320.323 57.7874 320.302 77.9702L320.276 89.687L337.095 89.6726C359.727 89.6663 374.601 93.619 374.868 119.59L374.868 407.647L374.884 425.33C374.89 460.665 361.47 463.802 329.229 463.767L171.347 463.755C152.297 463.696 137.447 454.539 136.612 433.566C136.464 429.312 136.607 424.012 136.608 419.666L136.612 182.251C136.612 161.532 136.332 140.242 136.612 119.59C135.39 97.7568 151.486 89.6851 170.178 89.6653L183.255 89.7314C185.46 89.7452 189.85 89.9586 191.737 89.0861ZM231.736 310.372L231.72 347.83C231.72 353.484 231.49 360.059 232.005 365.64C232.788 374.119 249.611 380.587 255.282 364.09L255.287 319.002C255.293 302.077 259.89 286.398 237.414 286.987C224.035 287.337 200.516 282.682 192.789 293.782C184.489 316.116 220.326 310.36 231.736 310.372Z"/><path fill="#98EFFA" transform="scale(2 2)" d="M191.737 89.0861L191.715 77.5884C191.696 56.4943 200.882 48.1642 221.798 48.1175L290.629 48.1204C311.207 48.1713 320.323 57.7874 320.302 77.9702L320.276 89.687L337.095 89.6726C359.727 89.6663 374.601 93.619 374.868 119.59C373.123 123.648 376.577 136.89 373.562 133.152C370.707 135.824 368.708 132.858 365.917 132.532C349.124 130.573 330.746 130.772 314.06 132.654C302.353 133.975 293.475 135.19 281.202 134.972C276.268 134.876 272.859 134.897 268.033 135.946C262.291 136.055 259.052 134.97 253.298 136.729C251.789 137.94 252.479 140.733 252.033 136.732C251.344 136.176 209.651 136.993 207.268 137.258C195.87 138.527 183.063 134.988 171.004 138.048C169.938 138.318 165.018 137.703 163.627 137.558L163.122 138.306L162.938 137.84L162.469 138.11L162.113 137.496L160.121 138.48C159.052 137.832 145.889 140.517 144.064 140.918C142.304 141.305 142.67 142.182 139.232 142.723C133.963 148.663 137.993 125.292 136.612 119.59C135.39 97.7568 151.486 89.6851 170.178 89.6653L183.255 89.7314C185.46 89.7452 189.85 89.9586 191.737 89.0861Z"/><path fill="lime" transform="scale(2 2)" d="M191.737 89.0861L191.715 77.5884C191.696 56.4943 200.882 48.1642 221.798 48.1175L290.629 48.1204C311.207 48.1713 320.323 57.7874 320.302 77.9702L320.276 89.687C316.284 88.8925 308.334 89.0702 303.964 89.0727L191.737 89.0861Z"/><path fill="lime" transform="scale(2 2)" d="M233.09 224.535C234.994 220.549 237.5 216.846 239.891 213.13L248.575 199.58C252.213 193.868 255.548 187.858 259.626 182.47C265.607 174.568 278.202 178.014 278.637 187.945C278.844 192.658 278.756 197.409 278.757 202.134L278.739 224.535C278.731 229.863 277.545 242.67 281.904 246.075C291.079 253.243 310.529 242.983 318.667 252.929C325.523 261.308 310.852 278.794 306.086 286.218L264.828 350.589C262.997 353.409 257.539 362.324 255.282 364.09L255.287 319.002C255.293 302.077 259.89 286.398 237.414 286.987C224.035 287.337 200.516 282.682 192.789 293.782C189.4 290.343 204.443 270.391 207.295 265.824L223.453 239.642C225.083 237.05 231.513 226.159 233.09 224.535Z"/></svg>